<?xml version="1.0" encoding="utf-8"?>
<!-- Generator: Adobe Illustrator 24.0.1, SVG Export Plug-In . SVG Version: 6.00 Build 0)  -->
<svg version="1.1" xmlns="http://www.w3.org/2000/svg" xmlns:xlink="http://www.w3.org/1999/xlink" x="0px" y="0px"
	 viewBox="0 0 1000 1000" style="enable-background:new 0 0 1000 1000;" xml:space="preserve">
<style type="text/css">
	.st0{display:none;}
	.st1{display:inline;}
	.st2{fill:#FFFFFF;}
</style>
<g id="Camada_1" class="st0">
	<g id="Camada_5" class="st1">
		<rect width="1000" height="1000"/>
	</g>
	<g id="Camada_1_1_">
		
			<image style="display:inline;overflow:visible;enable-background:new    ;" width="756" height="716" xlink:href="F65D85FB.jpeg"  transform="matrix(0.9986 0 0 0.9986 122.5279 142.5)">
		</image>
	</g>
	<g id="Camada_2_1_" class="st1">
		<g>
			<path class="st2" d="M4.6,788.4c-0.4,0.7-0.8,1.4-1.2,2.1L2.9,790L4.6,788.4z"/>
			<path class="st2" d="M212.1,995.8l-1.7,1.7l-0.5-0.5C210.6,996.6,211.4,996.2,212.1,995.8z"/>
			<path class="st2" d="M13.1,779.9l-8.5,8.5C6.8,785,9.7,782.1,13.1,779.9z"/>
			<path class="st2" d="M220.5,987.3c-2.2,3.4-5.1,6.3-8.5,8.5L220.5,987.3z"/>
			<path class="st2" d="M983.9,222.3L882.2,324L675.6,117.4L777.3,15.7c20.9-20.9,54.8-20.9,75.7,0l130.9,130.9
				C1004.8,167.5,1004.8,201.4,983.9,222.3z"/>
			<path class="st2" d="M614.3,178.7l207.4,207.4L212.1,995.8c-0.7,0.4-1.4,0.8-2.1,1.2c-3.7,1.9-7.9,3-12.4,3H27.6
				c-15,0-27.2-12.2-27.2-27.2V802.9c0-4.5,1.1-8.7,3-12.4c0.4-0.7,0.8-1.4,1.2-2.1L614.3,178.7z"/>
		</g>
	</g>
	<g id="Camada_3" class="st1">
	</g>
</g>
<g id="Camada_2">
	<path class="st2" d="M196,776.4H27.6C12.4,776.4,0,788.7,0,804v168.4c0,15.2,12.4,27.6,27.6,27.6H196c15.2,0,27.6-12.4,27.6-27.6
		V804C223.6,788.7,211.3,776.4,196,776.4z"/>
	
		<rect x="265.9" y="155.9" transform="matrix(-0.7071 -0.7071 0.7071 -0.7071 289.6083 1294.2539)" class="st2" width="293.9" height="862.5"/>
	<path class="st2" d="M854.7,17.4l127.4,127.4c22.2,22.2,22.2,58.2,0,80.4l-99.3,99.3L675,116.7l99.3-99.3
		C796.5-4.8,832.5-4.8,854.7,17.4z"/>
</g>
</svg>
